<mxfile host="Electron" modified="2023-12-08T17:16:53.857Z" agent="Mozilla/5.0 (Windows NT 10.0; Win64; x64) AppleWebKit/537.36 (KHTML, like Gecko) draw.io/22.0.3 Chrome/114.0.5735.289 Electron/25.8.4 Safari/537.36" etag="zcI5isAnGUm-WL3c5q5g" version="22.0.3" type="device">
  <diagram name="Page-1" id="x4ie3Mzu1vXqjYMbx4W9">
    <mxGraphModel dx="2922" dy="1228" grid="1" gridSize="10" guides="1" tooltips="1" connect="1" arrows="1" fold="1" page="1" pageScale="1" pageWidth="850" pageHeight="1100" math="0" shadow="0">
      <root>
        <mxCell id="0" />
        <mxCell id="1" parent="0" />
        <mxCell id="EXDuGgkbZWvS8G7htx2T-24" style="edgeStyle=orthogonalEdgeStyle;rounded=0;orthogonalLoop=1;jettySize=auto;html=1;exitX=0.5;exitY=1;exitDx=0;exitDy=0;entryX=0.5;entryY=0;entryDx=0;entryDy=0;" parent="1" source="EXDuGgkbZWvS8G7htx2T-1" target="EXDuGgkbZWvS8G7htx2T-2" edge="1">
          <mxGeometry relative="1" as="geometry" />
        </mxCell>
        <mxCell id="EXDuGgkbZWvS8G7htx2T-1" value="RESET" style="ellipse;whiteSpace=wrap;html=1;strokeWidth=2;fontSize=15;fontStyle=1" parent="1" vertex="1">
          <mxGeometry x="-590.11" y="65" width="120" height="70" as="geometry" />
        </mxCell>
        <mxCell id="EXDuGgkbZWvS8G7htx2T-25" style="edgeStyle=orthogonalEdgeStyle;rounded=0;orthogonalLoop=1;jettySize=auto;html=1;exitX=0.5;exitY=1;exitDx=0;exitDy=0;entryX=0.5;entryY=0;entryDx=0;entryDy=0;" parent="1" source="EXDuGgkbZWvS8G7htx2T-2" target="EXDuGgkbZWvS8G7htx2T-10" edge="1">
          <mxGeometry relative="1" as="geometry" />
        </mxCell>
        <mxCell id="EXDuGgkbZWvS8G7htx2T-2" value="Configurar registros en valores default" style="rounded=1;whiteSpace=wrap;html=1;strokeWidth=2;fontStyle=1;fontSize=15;" parent="1" vertex="1">
          <mxGeometry x="-590.11" y="155" width="120" height="60" as="geometry" />
        </mxCell>
        <mxCell id="EXDuGgkbZWvS8G7htx2T-127" style="edgeStyle=orthogonalEdgeStyle;rounded=0;orthogonalLoop=1;jettySize=auto;html=1;exitX=0.5;exitY=1;exitDx=0;exitDy=0;entryX=0.5;entryY=0;entryDx=0;entryDy=0;" parent="1" source="EXDuGgkbZWvS8G7htx2T-4" target="EXDuGgkbZWvS8G7htx2T-114" edge="1">
          <mxGeometry relative="1" as="geometry" />
        </mxCell>
        <mxCell id="EXDuGgkbZWvS8G7htx2T-4" value="USART&lt;br&gt;byte recibido" style="ellipse;whiteSpace=wrap;html=1;strokeWidth=2;fontSize=15;fontStyle=1" parent="1" vertex="1">
          <mxGeometry x="673.75" y="90" width="120" height="70" as="geometry" />
        </mxCell>
        <mxCell id="EXDuGgkbZWvS8G7htx2T-5" value="Retornar" style="ellipse;whiteSpace=wrap;html=1;strokeWidth=2;fontSize=15;fontStyle=1" parent="1" vertex="1">
          <mxGeometry x="-200" y="235" width="80" height="50" as="geometry" />
        </mxCell>
        <mxCell id="EXDuGgkbZWvS8G7htx2T-82" style="edgeStyle=orthogonalEdgeStyle;rounded=0;orthogonalLoop=1;jettySize=auto;html=1;exitX=0.5;exitY=1;exitDx=0;exitDy=0;entryX=0.5;entryY=0;entryDx=0;entryDy=0;" parent="1" source="EXDuGgkbZWvS8G7htx2T-6" target="EXDuGgkbZWvS8G7htx2T-71" edge="1">
          <mxGeometry relative="1" as="geometry" />
        </mxCell>
        <mxCell id="EXDuGgkbZWvS8G7htx2T-6" value="TIMER0&lt;br&gt;overflow" style="ellipse;whiteSpace=wrap;html=1;strokeWidth=2;fontSize=15;fontStyle=1" parent="1" vertex="1">
          <mxGeometry x="217.5" y="100" width="120" height="70" as="geometry" />
        </mxCell>
        <mxCell id="EXDuGgkbZWvS8G7htx2T-69" style="edgeStyle=orthogonalEdgeStyle;rounded=0;orthogonalLoop=1;jettySize=auto;html=1;exitX=0.5;exitY=1;exitDx=0;exitDy=0;entryX=0.5;entryY=0;entryDx=0;entryDy=0;" parent="1" source="EXDuGgkbZWvS8G7htx2T-7" target="EXDuGgkbZWvS8G7htx2T-68" edge="1">
          <mxGeometry relative="1" as="geometry" />
        </mxCell>
        <mxCell id="EXDuGgkbZWvS8G7htx2T-7" value="TIMER2&lt;br&gt;overflow" style="ellipse;whiteSpace=wrap;html=1;strokeWidth=2;fontSize=15;fontStyle=1" parent="1" vertex="1">
          <mxGeometry x="-220" y="65" width="120" height="70" as="geometry" />
        </mxCell>
        <mxCell id="U3W17LR9RMBSGNJ_wiev-40" style="edgeStyle=orthogonalEdgeStyle;rounded=0;orthogonalLoop=1;jettySize=auto;html=1;exitX=0.5;exitY=1;exitDx=0;exitDy=0;entryX=0.5;entryY=0;entryDx=0;entryDy=0;" edge="1" parent="1" source="EXDuGgkbZWvS8G7htx2T-9" target="U3W17LR9RMBSGNJ_wiev-2">
          <mxGeometry relative="1" as="geometry" />
        </mxCell>
        <mxCell id="EXDuGgkbZWvS8G7htx2T-9" value="PCINT&lt;br&gt;pin changed" style="ellipse;whiteSpace=wrap;html=1;strokeWidth=2;fontSize=15;fontStyle=1" parent="1" vertex="1">
          <mxGeometry x="1515.71" y="40" width="120" height="70" as="geometry" />
        </mxCell>
        <mxCell id="EXDuGgkbZWvS8G7htx2T-26" style="edgeStyle=orthogonalEdgeStyle;rounded=0;orthogonalLoop=1;jettySize=auto;html=1;exitX=0.5;exitY=1;exitDx=0;exitDy=0;entryX=0.5;entryY=0;entryDx=0;entryDy=0;" parent="1" source="EXDuGgkbZWvS8G7htx2T-10" target="EXDuGgkbZWvS8G7htx2T-13" edge="1">
          <mxGeometry relative="1" as="geometry" />
        </mxCell>
        <mxCell id="EXDuGgkbZWvS8G7htx2T-10" value="Configurar puertos, timers, interrupciones" style="rounded=1;whiteSpace=wrap;html=1;strokeWidth=2;fontStyle=1;fontSize=15;" parent="1" vertex="1">
          <mxGeometry x="-590.11" y="235" width="120" height="60" as="geometry" />
        </mxCell>
        <mxCell id="EXDuGgkbZWvS8G7htx2T-27" style="edgeStyle=orthogonalEdgeStyle;rounded=0;orthogonalLoop=1;jettySize=auto;html=1;exitX=0.5;exitY=1;exitDx=0;exitDy=0;entryX=0.5;entryY=0;entryDx=0;entryDy=0;" parent="1" source="EXDuGgkbZWvS8G7htx2T-13" target="EXDuGgkbZWvS8G7htx2T-14" edge="1">
          <mxGeometry relative="1" as="geometry" />
        </mxCell>
        <mxCell id="EXDuGgkbZWvS8G7htx2T-13" value="Prender ACTIVE_LED" style="rounded=1;whiteSpace=wrap;html=1;strokeWidth=2;fontStyle=1;fontSize=15;" parent="1" vertex="1">
          <mxGeometry x="-590.11" y="315" width="120" height="40" as="geometry" />
        </mxCell>
        <mxCell id="EXDuGgkbZWvS8G7htx2T-28" style="edgeStyle=orthogonalEdgeStyle;rounded=0;orthogonalLoop=1;jettySize=auto;html=1;exitX=0.5;exitY=1;exitDx=0;exitDy=0;entryX=0.5;entryY=0;entryDx=0;entryDy=0;" parent="1" source="EXDuGgkbZWvS8G7htx2T-14" target="EXDuGgkbZWvS8G7htx2T-16" edge="1">
          <mxGeometry relative="1" as="geometry" />
        </mxCell>
        <mxCell id="EXDuGgkbZWvS8G7htx2T-14" value="Mandar información, estado láser y posición actual" style="rounded=1;whiteSpace=wrap;html=1;strokeWidth=2;fontStyle=1;fontSize=15;" parent="1" vertex="1">
          <mxGeometry x="-590.11" y="375" width="120" height="80" as="geometry" />
        </mxCell>
        <mxCell id="EXDuGgkbZWvS8G7htx2T-29" style="edgeStyle=orthogonalEdgeStyle;rounded=0;orthogonalLoop=1;jettySize=auto;html=1;exitX=0.5;exitY=1;exitDx=0;exitDy=0;entryX=0.5;entryY=0;entryDx=0;entryDy=0;" parent="1" source="EXDuGgkbZWvS8G7htx2T-16" target="EXDuGgkbZWvS8G7htx2T-21" edge="1">
          <mxGeometry relative="1" as="geometry" />
        </mxCell>
        <mxCell id="EXDuGgkbZWvS8G7htx2T-66" value="Sí" style="edgeLabel;html=1;align=center;verticalAlign=middle;resizable=0;points=[];fontStyle=1" parent="EXDuGgkbZWvS8G7htx2T-29" vertex="1" connectable="0">
          <mxGeometry x="-0.3457" y="2" relative="1" as="geometry">
            <mxPoint x="8" as="offset" />
          </mxGeometry>
        </mxCell>
        <mxCell id="EXDuGgkbZWvS8G7htx2T-32" style="edgeStyle=orthogonalEdgeStyle;rounded=0;orthogonalLoop=1;jettySize=auto;html=1;exitX=1;exitY=0.5;exitDx=0;exitDy=0;entryX=0.5;entryY=0;entryDx=0;entryDy=0;" parent="1" source="EXDuGgkbZWvS8G7htx2T-16" target="EXDuGgkbZWvS8G7htx2T-17" edge="1">
          <mxGeometry relative="1" as="geometry" />
        </mxCell>
        <mxCell id="EXDuGgkbZWvS8G7htx2T-67" value="No" style="edgeLabel;html=1;align=center;verticalAlign=middle;resizable=0;points=[];fontStyle=1" parent="EXDuGgkbZWvS8G7htx2T-32" vertex="1" connectable="0">
          <mxGeometry x="-0.7149" y="-1" relative="1" as="geometry">
            <mxPoint x="-9" y="-16" as="offset" />
          </mxGeometry>
        </mxCell>
        <mxCell id="EXDuGgkbZWvS8G7htx2T-16" value="Hay alguna&lt;br&gt;acción pendiente o&lt;br&gt;en curso?" style="rhombus;whiteSpace=wrap;html=1;fontStyle=1;fontSize=15;strokeWidth=2;" parent="1" vertex="1">
          <mxGeometry x="-625.11" y="475" width="190" height="90" as="geometry" />
        </mxCell>
        <mxCell id="EXDuGgkbZWvS8G7htx2T-33" style="edgeStyle=orthogonalEdgeStyle;rounded=0;orthogonalLoop=1;jettySize=auto;html=1;exitX=0.5;exitY=1;exitDx=0;exitDy=0;entryX=0.5;entryY=0;entryDx=0;entryDy=0;" parent="1" source="EXDuGgkbZWvS8G7htx2T-17" target="EXDuGgkbZWvS8G7htx2T-18" edge="1">
          <mxGeometry relative="1" as="geometry" />
        </mxCell>
        <mxCell id="EXDuGgkbZWvS8G7htx2T-17" value="Apagar ACTIVE_LED" style="rounded=1;whiteSpace=wrap;html=1;strokeWidth=2;fontStyle=1;fontSize=15;" parent="1" vertex="1">
          <mxGeometry x="-420.11" y="545" width="120" height="40" as="geometry" />
        </mxCell>
        <mxCell id="EXDuGgkbZWvS8G7htx2T-34" style="edgeStyle=orthogonalEdgeStyle;rounded=0;orthogonalLoop=1;jettySize=auto;html=1;exitX=0.5;exitY=1;exitDx=0;exitDy=0;entryX=0.5;entryY=0;entryDx=0;entryDy=0;" parent="1" source="EXDuGgkbZWvS8G7htx2T-18" target="EXDuGgkbZWvS8G7htx2T-19" edge="1">
          <mxGeometry relative="1" as="geometry" />
        </mxCell>
        <mxCell id="EXDuGgkbZWvS8G7htx2T-18" value="Sleep" style="rounded=1;whiteSpace=wrap;html=1;strokeWidth=2;fontStyle=1;fontSize=15;" parent="1" vertex="1">
          <mxGeometry x="-420.11" y="595" width="120" height="40" as="geometry" />
        </mxCell>
        <mxCell id="EXDuGgkbZWvS8G7htx2T-35" style="edgeStyle=orthogonalEdgeStyle;rounded=0;orthogonalLoop=1;jettySize=auto;html=1;exitX=1;exitY=0.5;exitDx=0;exitDy=0;" parent="1" source="EXDuGgkbZWvS8G7htx2T-19" edge="1">
          <mxGeometry relative="1" as="geometry">
            <mxPoint x="-530.11" y="465" as="targetPoint" />
            <Array as="points">
              <mxPoint x="-280.11" y="665" />
              <mxPoint x="-280.11" y="465" />
            </Array>
          </mxGeometry>
        </mxCell>
        <mxCell id="EXDuGgkbZWvS8G7htx2T-19" value="Prender ACTIVE_LED" style="rounded=1;whiteSpace=wrap;html=1;strokeWidth=2;fontStyle=1;fontSize=15;" parent="1" vertex="1">
          <mxGeometry x="-420.11" y="645" width="120" height="40" as="geometry" />
        </mxCell>
        <mxCell id="EXDuGgkbZWvS8G7htx2T-30" style="edgeStyle=orthogonalEdgeStyle;rounded=0;orthogonalLoop=1;jettySize=auto;html=1;exitX=0.5;exitY=1;exitDx=0;exitDy=0;entryX=0.5;entryY=0;entryDx=0;entryDy=0;" parent="1" source="EXDuGgkbZWvS8G7htx2T-21" target="EXDuGgkbZWvS8G7htx2T-22" edge="1">
          <mxGeometry relative="1" as="geometry" />
        </mxCell>
        <mxCell id="EXDuGgkbZWvS8G7htx2T-65" value="No" style="edgeLabel;html=1;align=center;verticalAlign=middle;resizable=0;points=[];fontStyle=1" parent="EXDuGgkbZWvS8G7htx2T-30" vertex="1" connectable="0">
          <mxGeometry x="-0.26" relative="1" as="geometry">
            <mxPoint x="10" y="3" as="offset" />
          </mxGeometry>
        </mxCell>
        <mxCell id="EXDuGgkbZWvS8G7htx2T-38" style="edgeStyle=orthogonalEdgeStyle;rounded=0;orthogonalLoop=1;jettySize=auto;html=1;exitX=0;exitY=0.5;exitDx=0;exitDy=0;entryX=1;entryY=0.5;entryDx=0;entryDy=0;" parent="1" source="EXDuGgkbZWvS8G7htx2T-21" target="EXDuGgkbZWvS8G7htx2T-36" edge="1">
          <mxGeometry relative="1" as="geometry" />
        </mxCell>
        <mxCell id="EXDuGgkbZWvS8G7htx2T-62" value="Sí" style="edgeLabel;html=1;align=center;verticalAlign=middle;resizable=0;points=[];fontStyle=1" parent="EXDuGgkbZWvS8G7htx2T-38" vertex="1" connectable="0">
          <mxGeometry x="0.0324" relative="1" as="geometry">
            <mxPoint y="15" as="offset" />
          </mxGeometry>
        </mxCell>
        <mxCell id="EXDuGgkbZWvS8G7htx2T-21" value="Hay&lt;br&gt;alguna medición pendiente?" style="rhombus;whiteSpace=wrap;html=1;fontStyle=1;fontSize=15;strokeWidth=2;" parent="1" vertex="1">
          <mxGeometry x="-625.11" y="585" width="190" height="90" as="geometry" />
        </mxCell>
        <mxCell id="EXDuGgkbZWvS8G7htx2T-31" style="edgeStyle=orthogonalEdgeStyle;rounded=0;orthogonalLoop=1;jettySize=auto;html=1;exitX=0.5;exitY=1;exitDx=0;exitDy=0;entryX=0.5;entryY=0;entryDx=0;entryDy=0;" parent="1" source="EXDuGgkbZWvS8G7htx2T-22" target="EXDuGgkbZWvS8G7htx2T-23" edge="1">
          <mxGeometry relative="1" as="geometry" />
        </mxCell>
        <mxCell id="EXDuGgkbZWvS8G7htx2T-41" style="edgeStyle=orthogonalEdgeStyle;rounded=0;orthogonalLoop=1;jettySize=auto;html=1;exitX=0;exitY=0.5;exitDx=0;exitDy=0;entryX=1;entryY=0.5;entryDx=0;entryDy=0;" parent="1" source="EXDuGgkbZWvS8G7htx2T-22" target="EXDuGgkbZWvS8G7htx2T-40" edge="1">
          <mxGeometry relative="1" as="geometry" />
        </mxCell>
        <mxCell id="EXDuGgkbZWvS8G7htx2T-61" value="Sí" style="edgeLabel;html=1;align=center;verticalAlign=middle;resizable=0;points=[];fontStyle=1" parent="EXDuGgkbZWvS8G7htx2T-41" vertex="1" connectable="0">
          <mxGeometry x="0.0324" relative="1" as="geometry">
            <mxPoint y="15" as="offset" />
          </mxGeometry>
        </mxCell>
        <mxCell id="EXDuGgkbZWvS8G7htx2T-63" value="" style="edgeStyle=orthogonalEdgeStyle;rounded=0;orthogonalLoop=1;jettySize=auto;html=1;" parent="1" source="EXDuGgkbZWvS8G7htx2T-22" target="EXDuGgkbZWvS8G7htx2T-23" edge="1">
          <mxGeometry relative="1" as="geometry" />
        </mxCell>
        <mxCell id="EXDuGgkbZWvS8G7htx2T-64" value="No" style="edgeLabel;html=1;align=center;verticalAlign=middle;resizable=0;points=[];fontStyle=1" parent="EXDuGgkbZWvS8G7htx2T-63" vertex="1" connectable="0">
          <mxGeometry x="0.1362" y="3" relative="1" as="geometry">
            <mxPoint x="13" y="4" as="offset" />
          </mxGeometry>
        </mxCell>
        <mxCell id="EXDuGgkbZWvS8G7htx2T-22" value="Hay&lt;br&gt;algún byte que&lt;br&gt;procesar?" style="rhombus;whiteSpace=wrap;html=1;fontStyle=1;fontSize=15;strokeWidth=2;" parent="1" vertex="1">
          <mxGeometry x="-625.11" y="695" width="190" height="90" as="geometry" />
        </mxCell>
        <mxCell id="EXDuGgkbZWvS8G7htx2T-56" style="edgeStyle=orthogonalEdgeStyle;rounded=0;orthogonalLoop=1;jettySize=auto;html=1;exitX=0;exitY=0.5;exitDx=0;exitDy=0;entryX=1;entryY=0.5;entryDx=0;entryDy=0;" parent="1" source="EXDuGgkbZWvS8G7htx2T-23" target="EXDuGgkbZWvS8G7htx2T-45" edge="1">
          <mxGeometry relative="1" as="geometry" />
        </mxCell>
        <mxCell id="EXDuGgkbZWvS8G7htx2T-60" value="Sí" style="edgeLabel;html=1;align=center;verticalAlign=middle;resizable=0;points=[];fontStyle=1" parent="EXDuGgkbZWvS8G7htx2T-56" vertex="1" connectable="0">
          <mxGeometry x="0.0133" y="-4" relative="1" as="geometry">
            <mxPoint y="19" as="offset" />
          </mxGeometry>
        </mxCell>
        <mxCell id="EXDuGgkbZWvS8G7htx2T-57" style="edgeStyle=orthogonalEdgeStyle;rounded=0;orthogonalLoop=1;jettySize=auto;html=1;exitX=1;exitY=0.5;exitDx=0;exitDy=0;" parent="1" source="EXDuGgkbZWvS8G7htx2T-23" edge="1">
          <mxGeometry relative="1" as="geometry">
            <mxPoint x="-530.11" y="465" as="targetPoint" />
            <Array as="points">
              <mxPoint x="-280.11" y="850" />
              <mxPoint x="-280.11" y="465" />
            </Array>
          </mxGeometry>
        </mxCell>
        <mxCell id="EXDuGgkbZWvS8G7htx2T-58" value="No&lt;br&gt;" style="edgeLabel;html=1;align=center;verticalAlign=middle;resizable=0;points=[];fontStyle=1" parent="EXDuGgkbZWvS8G7htx2T-57" vertex="1" connectable="0">
          <mxGeometry x="-0.8876" y="3" relative="1" as="geometry">
            <mxPoint x="-29" y="18" as="offset" />
          </mxGeometry>
        </mxCell>
        <mxCell id="EXDuGgkbZWvS8G7htx2T-23" value="Hay algún&lt;br&gt;comando que&lt;br&gt;procesar?" style="rhombus;whiteSpace=wrap;html=1;fontStyle=1;fontSize=15;strokeWidth=2;" parent="1" vertex="1">
          <mxGeometry x="-625.11" y="805" width="190" height="90" as="geometry" />
        </mxCell>
        <mxCell id="EXDuGgkbZWvS8G7htx2T-49" style="edgeStyle=orthogonalEdgeStyle;rounded=0;orthogonalLoop=1;jettySize=auto;html=1;exitX=0.5;exitY=1;exitDx=0;exitDy=0;entryX=0.5;entryY=0;entryDx=0;entryDy=0;" parent="1" source="EXDuGgkbZWvS8G7htx2T-36" target="EXDuGgkbZWvS8G7htx2T-46" edge="1">
          <mxGeometry relative="1" as="geometry" />
        </mxCell>
        <mxCell id="EXDuGgkbZWvS8G7htx2T-36" value="Iniciar medición" style="rounded=1;whiteSpace=wrap;html=1;strokeWidth=2;fontStyle=1;fontSize=15;" parent="1" vertex="1">
          <mxGeometry x="-760.11" y="610" width="120" height="40" as="geometry" />
        </mxCell>
        <mxCell id="EXDuGgkbZWvS8G7htx2T-52" style="edgeStyle=orthogonalEdgeStyle;rounded=0;orthogonalLoop=1;jettySize=auto;html=1;exitX=0.5;exitY=1;exitDx=0;exitDy=0;entryX=0.5;entryY=0;entryDx=0;entryDy=0;" parent="1" source="EXDuGgkbZWvS8G7htx2T-40" target="EXDuGgkbZWvS8G7htx2T-47" edge="1">
          <mxGeometry relative="1" as="geometry" />
        </mxCell>
        <mxCell id="EXDuGgkbZWvS8G7htx2T-40" value="Procesar byte" style="rounded=1;whiteSpace=wrap;html=1;strokeWidth=2;fontStyle=1;fontSize=15;" parent="1" vertex="1">
          <mxGeometry x="-760.11" y="720" width="120" height="40" as="geometry" />
        </mxCell>
        <mxCell id="EXDuGgkbZWvS8G7htx2T-54" style="edgeStyle=orthogonalEdgeStyle;rounded=0;orthogonalLoop=1;jettySize=auto;html=1;exitX=0.5;exitY=1;exitDx=0;exitDy=0;entryX=0.5;entryY=0;entryDx=0;entryDy=0;" parent="1" source="EXDuGgkbZWvS8G7htx2T-45" target="EXDuGgkbZWvS8G7htx2T-48" edge="1">
          <mxGeometry relative="1" as="geometry" />
        </mxCell>
        <mxCell id="EXDuGgkbZWvS8G7htx2T-45" value="Procesar comando" style="rounded=1;whiteSpace=wrap;html=1;strokeWidth=2;fontStyle=1;fontSize=15;" parent="1" vertex="1">
          <mxGeometry x="-760.11" y="830" width="120" height="40" as="geometry" />
        </mxCell>
        <mxCell id="EXDuGgkbZWvS8G7htx2T-50" style="edgeStyle=orthogonalEdgeStyle;rounded=0;orthogonalLoop=1;jettySize=auto;html=1;exitX=0;exitY=0.5;exitDx=0;exitDy=0;" parent="1" source="EXDuGgkbZWvS8G7htx2T-46" edge="1">
          <mxGeometry relative="1" as="geometry">
            <mxPoint x="-530.11" y="465" as="targetPoint" />
            <Array as="points">
              <mxPoint x="-780.11" y="685" />
              <mxPoint x="-780.11" y="465" />
            </Array>
          </mxGeometry>
        </mxCell>
        <mxCell id="EXDuGgkbZWvS8G7htx2T-46" value="Actualizar estado" style="rounded=1;whiteSpace=wrap;html=1;strokeWidth=2;fontStyle=1;fontSize=15;" parent="1" vertex="1">
          <mxGeometry x="-760.11" y="665" width="120" height="40" as="geometry" />
        </mxCell>
        <mxCell id="EXDuGgkbZWvS8G7htx2T-53" style="edgeStyle=orthogonalEdgeStyle;rounded=0;orthogonalLoop=1;jettySize=auto;html=1;exitX=0;exitY=0.5;exitDx=0;exitDy=0;" parent="1" source="EXDuGgkbZWvS8G7htx2T-47" edge="1">
          <mxGeometry relative="1" as="geometry">
            <mxPoint x="-530.11" y="465" as="targetPoint" />
            <Array as="points">
              <mxPoint x="-780.11" y="795" />
              <mxPoint x="-780.11" y="465" />
            </Array>
          </mxGeometry>
        </mxCell>
        <mxCell id="EXDuGgkbZWvS8G7htx2T-47" value="Actualizar estado" style="rounded=1;whiteSpace=wrap;html=1;strokeWidth=2;fontStyle=1;fontSize=15;" parent="1" vertex="1">
          <mxGeometry x="-760.11" y="775" width="120" height="40" as="geometry" />
        </mxCell>
        <mxCell id="EXDuGgkbZWvS8G7htx2T-55" style="edgeStyle=orthogonalEdgeStyle;rounded=0;orthogonalLoop=1;jettySize=auto;html=1;exitX=0;exitY=0.5;exitDx=0;exitDy=0;" parent="1" source="EXDuGgkbZWvS8G7htx2T-48" edge="1">
          <mxGeometry relative="1" as="geometry">
            <mxPoint x="-530.11" y="465" as="targetPoint" />
            <Array as="points">
              <mxPoint x="-780.11" y="905" />
              <mxPoint x="-780.11" y="465" />
            </Array>
          </mxGeometry>
        </mxCell>
        <mxCell id="EXDuGgkbZWvS8G7htx2T-48" value="Actualizar estado" style="rounded=1;whiteSpace=wrap;html=1;strokeWidth=2;fontStyle=1;fontSize=15;" parent="1" vertex="1">
          <mxGeometry x="-760.11" y="885" width="120" height="40" as="geometry" />
        </mxCell>
        <mxCell id="EXDuGgkbZWvS8G7htx2T-70" style="edgeStyle=orthogonalEdgeStyle;rounded=0;orthogonalLoop=1;jettySize=auto;html=1;exitX=0.5;exitY=1;exitDx=0;exitDy=0;entryX=0.5;entryY=0;entryDx=0;entryDy=0;" parent="1" source="EXDuGgkbZWvS8G7htx2T-68" target="EXDuGgkbZWvS8G7htx2T-5" edge="1">
          <mxGeometry relative="1" as="geometry" />
        </mxCell>
        <mxCell id="EXDuGgkbZWvS8G7htx2T-68" value="Incrementar byte alto de lectura" style="rounded=1;whiteSpace=wrap;html=1;strokeWidth=2;fontStyle=1;fontSize=15;" parent="1" vertex="1">
          <mxGeometry x="-220" y="155" width="120" height="60" as="geometry" />
        </mxCell>
        <mxCell id="EXDuGgkbZWvS8G7htx2T-81" style="edgeStyle=orthogonalEdgeStyle;rounded=0;orthogonalLoop=1;jettySize=auto;html=1;exitX=0.5;exitY=1;exitDx=0;exitDy=0;entryX=0.5;entryY=0;entryDx=0;entryDy=0;" parent="1" source="EXDuGgkbZWvS8G7htx2T-71" target="EXDuGgkbZWvS8G7htx2T-72" edge="1">
          <mxGeometry relative="1" as="geometry" />
        </mxCell>
        <mxCell id="EXDuGgkbZWvS8G7htx2T-71" value="Decrementar contador de overflows restantes" style="rounded=1;whiteSpace=wrap;html=1;strokeWidth=2;fontStyle=1;fontSize=15;" parent="1" vertex="1">
          <mxGeometry x="217.5" y="185" width="120" height="70" as="geometry" />
        </mxCell>
        <mxCell id="EXDuGgkbZWvS8G7htx2T-131" style="edgeStyle=orthogonalEdgeStyle;rounded=0;orthogonalLoop=1;jettySize=auto;html=1;exitX=1;exitY=0.5;exitDx=0;exitDy=0;entryX=1;entryY=0.5;entryDx=0;entryDy=0;" parent="1" source="EXDuGgkbZWvS8G7htx2T-72" target="EXDuGgkbZWvS8G7htx2T-73" edge="1">
          <mxGeometry relative="1" as="geometry">
            <Array as="points">
              <mxPoint x="530" y="315" />
              <mxPoint x="530" y="880" />
            </Array>
          </mxGeometry>
        </mxCell>
        <mxCell id="EXDuGgkbZWvS8G7htx2T-132" value="Sí" style="edgeLabel;html=1;align=center;verticalAlign=middle;resizable=0;points=[];fontStyle=1" parent="EXDuGgkbZWvS8G7htx2T-131" vertex="1" connectable="0">
          <mxGeometry x="-0.8973" y="-1" relative="1" as="geometry">
            <mxPoint x="-33" y="-16" as="offset" />
          </mxGeometry>
        </mxCell>
        <mxCell id="EXDuGgkbZWvS8G7htx2T-72" value="Quedan&lt;br&gt;overflows&lt;br&gt;restantes?" style="rhombus;whiteSpace=wrap;html=1;fontStyle=1;fontSize=15;strokeWidth=2;" parent="1" vertex="1">
          <mxGeometry x="190" y="270" width="175" height="90" as="geometry" />
        </mxCell>
        <mxCell id="EXDuGgkbZWvS8G7htx2T-73" value="Retornar" style="ellipse;whiteSpace=wrap;html=1;strokeWidth=2;fontSize=15;fontStyle=1" parent="1" vertex="1">
          <mxGeometry x="237.5" y="855" width="80" height="50" as="geometry" />
        </mxCell>
        <mxCell id="EXDuGgkbZWvS8G7htx2T-80" style="edgeStyle=orthogonalEdgeStyle;rounded=0;orthogonalLoop=1;jettySize=auto;html=1;exitX=0.5;exitY=1;exitDx=0;exitDy=0;entryX=0.5;entryY=0;entryDx=0;entryDy=0;" parent="1" source="EXDuGgkbZWvS8G7htx2T-74" target="EXDuGgkbZWvS8G7htx2T-75" edge="1">
          <mxGeometry relative="1" as="geometry" />
        </mxCell>
        <mxCell id="EXDuGgkbZWvS8G7htx2T-74" value="Apagar TIMER0" style="rounded=1;whiteSpace=wrap;html=1;strokeWidth=2;fontStyle=1;fontSize=15;" parent="1" vertex="1">
          <mxGeometry x="217.5" y="380" width="120" height="40" as="geometry" />
        </mxCell>
        <mxCell id="EXDuGgkbZWvS8G7htx2T-83" style="edgeStyle=orthogonalEdgeStyle;rounded=0;orthogonalLoop=1;jettySize=auto;html=1;exitX=0.5;exitY=1;exitDx=0;exitDy=0;entryX=0.5;entryY=0;entryDx=0;entryDy=0;" parent="1" source="EXDuGgkbZWvS8G7htx2T-75" target="EXDuGgkbZWvS8G7htx2T-76" edge="1">
          <mxGeometry relative="1" as="geometry" />
        </mxCell>
        <mxCell id="EXDuGgkbZWvS8G7htx2T-135" value="No" style="edgeLabel;html=1;align=center;verticalAlign=middle;resizable=0;points=[];fontStyle=1" parent="EXDuGgkbZWvS8G7htx2T-83" vertex="1" connectable="0">
          <mxGeometry x="-0.4519" y="2" relative="1" as="geometry">
            <mxPoint x="11" y="5" as="offset" />
          </mxGeometry>
        </mxCell>
        <mxCell id="EXDuGgkbZWvS8G7htx2T-90" style="edgeStyle=orthogonalEdgeStyle;rounded=0;orthogonalLoop=1;jettySize=auto;html=1;exitX=1;exitY=0.5;exitDx=0;exitDy=0;entryX=0;entryY=0.5;entryDx=0;entryDy=0;" parent="1" source="EXDuGgkbZWvS8G7htx2T-75" target="EXDuGgkbZWvS8G7htx2T-89" edge="1">
          <mxGeometry relative="1" as="geometry" />
        </mxCell>
        <mxCell id="EXDuGgkbZWvS8G7htx2T-134" value="Sí" style="edgeLabel;html=1;align=center;verticalAlign=middle;resizable=0;points=[];fontStyle=1" parent="EXDuGgkbZWvS8G7htx2T-90" vertex="1" connectable="0">
          <mxGeometry x="-0.0243" y="-1" relative="1" as="geometry">
            <mxPoint x="-9" y="-11" as="offset" />
          </mxGeometry>
        </mxCell>
        <mxCell id="EXDuGgkbZWvS8G7htx2T-75" value="El delay era para escanear?" style="rhombus;whiteSpace=wrap;html=1;fontStyle=1;fontSize=15;strokeWidth=2;" parent="1" vertex="1">
          <mxGeometry x="182.5" y="430" width="190" height="80" as="geometry" />
        </mxCell>
        <mxCell id="EXDuGgkbZWvS8G7htx2T-84" style="edgeStyle=orthogonalEdgeStyle;rounded=0;orthogonalLoop=1;jettySize=auto;html=1;exitX=0.5;exitY=1;exitDx=0;exitDy=0;entryX=0.5;entryY=0;entryDx=0;entryDy=0;" parent="1" source="EXDuGgkbZWvS8G7htx2T-76" target="EXDuGgkbZWvS8G7htx2T-77" edge="1">
          <mxGeometry relative="1" as="geometry" />
        </mxCell>
        <mxCell id="EXDuGgkbZWvS8G7htx2T-136" value="No" style="edgeLabel;html=1;align=center;verticalAlign=middle;resizable=0;points=[];fontStyle=1" parent="EXDuGgkbZWvS8G7htx2T-84" vertex="1" connectable="0">
          <mxGeometry x="0.0296" y="3" relative="1" as="geometry">
            <mxPoint x="10" as="offset" />
          </mxGeometry>
        </mxCell>
        <mxCell id="EXDuGgkbZWvS8G7htx2T-93" style="edgeStyle=orthogonalEdgeStyle;rounded=0;orthogonalLoop=1;jettySize=auto;html=1;exitX=0;exitY=0.5;exitDx=0;exitDy=0;entryX=0.5;entryY=0;entryDx=0;entryDy=0;" parent="1" source="EXDuGgkbZWvS8G7htx2T-76" target="EXDuGgkbZWvS8G7htx2T-92" edge="1">
          <mxGeometry relative="1" as="geometry" />
        </mxCell>
        <mxCell id="EXDuGgkbZWvS8G7htx2T-140" value="Sí" style="edgeLabel;html=1;align=center;verticalAlign=middle;resizable=0;points=[];fontStyle=1" parent="EXDuGgkbZWvS8G7htx2T-93" vertex="1" connectable="0">
          <mxGeometry x="-0.2181" relative="1" as="geometry">
            <mxPoint x="33" y="-10" as="offset" />
          </mxGeometry>
        </mxCell>
        <mxCell id="EXDuGgkbZWvS8G7htx2T-76" value="El delay era&lt;br&gt;para prender/apagar el láser?" style="rhombus;whiteSpace=wrap;html=1;fontStyle=1;fontSize=15;strokeWidth=2;" parent="1" vertex="1">
          <mxGeometry x="182.5" y="530" width="190" height="90" as="geometry" />
        </mxCell>
        <mxCell id="EXDuGgkbZWvS8G7htx2T-78" style="edgeStyle=orthogonalEdgeStyle;rounded=0;orthogonalLoop=1;jettySize=auto;html=1;exitX=0.5;exitY=1;exitDx=0;exitDy=0;entryX=0.5;entryY=0;entryDx=0;entryDy=0;" parent="1" source="EXDuGgkbZWvS8G7htx2T-77" target="EXDuGgkbZWvS8G7htx2T-73" edge="1">
          <mxGeometry relative="1" as="geometry">
            <mxPoint x="277.5" y="830" as="targetPoint" />
          </mxGeometry>
        </mxCell>
        <mxCell id="EXDuGgkbZWvS8G7htx2T-137" value="No" style="edgeLabel;html=1;align=center;verticalAlign=middle;resizable=0;points=[];fontStyle=1" parent="EXDuGgkbZWvS8G7htx2T-78" vertex="1" connectable="0">
          <mxGeometry x="0.2354" y="-1" relative="1" as="geometry">
            <mxPoint x="14" y="-56" as="offset" />
          </mxGeometry>
        </mxCell>
        <mxCell id="EXDuGgkbZWvS8G7htx2T-108" style="edgeStyle=orthogonalEdgeStyle;rounded=0;orthogonalLoop=1;jettySize=auto;html=1;exitX=1;exitY=0.5;exitDx=0;exitDy=0;entryX=0.5;entryY=0;entryDx=0;entryDy=0;" parent="1" source="EXDuGgkbZWvS8G7htx2T-77" target="EXDuGgkbZWvS8G7htx2T-107" edge="1">
          <mxGeometry relative="1" as="geometry" />
        </mxCell>
        <mxCell id="EXDuGgkbZWvS8G7htx2T-139" value="Sí" style="edgeLabel;html=1;align=center;verticalAlign=middle;resizable=0;points=[];fontStyle=1" parent="EXDuGgkbZWvS8G7htx2T-108" vertex="1" connectable="0">
          <mxGeometry x="-0.34" y="2" relative="1" as="geometry">
            <mxPoint x="-26" y="-13" as="offset" />
          </mxGeometry>
        </mxCell>
        <mxCell id="EXDuGgkbZWvS8G7htx2T-77" value="El&lt;br&gt;delay era solo&lt;br&gt;para mover&lt;br&gt;el servo?" style="rhombus;whiteSpace=wrap;html=1;fontStyle=1;fontSize=15;strokeWidth=2;" parent="1" vertex="1">
          <mxGeometry x="182.5" y="640" width="190" height="100" as="geometry" />
        </mxCell>
        <mxCell id="EXDuGgkbZWvS8G7htx2T-79" style="edgeStyle=orthogonalEdgeStyle;rounded=0;orthogonalLoop=1;jettySize=auto;html=1;exitX=0.5;exitY=1;exitDx=0;exitDy=0;entryX=0.5;entryY=0;entryDx=0;entryDy=0;" parent="1" source="EXDuGgkbZWvS8G7htx2T-72" target="EXDuGgkbZWvS8G7htx2T-74" edge="1">
          <mxGeometry relative="1" as="geometry" />
        </mxCell>
        <mxCell id="EXDuGgkbZWvS8G7htx2T-133" value="No" style="edgeLabel;html=1;align=center;verticalAlign=middle;resizable=0;points=[];fontStyle=1" parent="EXDuGgkbZWvS8G7htx2T-79" vertex="1" connectable="0">
          <mxGeometry x="-0.0897" relative="1" as="geometry">
            <mxPoint x="13" as="offset" />
          </mxGeometry>
        </mxCell>
        <mxCell id="EXDuGgkbZWvS8G7htx2T-110" style="edgeStyle=orthogonalEdgeStyle;rounded=0;orthogonalLoop=1;jettySize=auto;html=1;exitX=1;exitY=0.5;exitDx=0;exitDy=0;entryX=1;entryY=0.5;entryDx=0;entryDy=0;" parent="1" source="EXDuGgkbZWvS8G7htx2T-89" target="EXDuGgkbZWvS8G7htx2T-73" edge="1">
          <mxGeometry relative="1" as="geometry" />
        </mxCell>
        <mxCell id="EXDuGgkbZWvS8G7htx2T-89" value="Activar medición pendiente" style="rounded=1;whiteSpace=wrap;html=1;strokeWidth=2;fontStyle=1;fontSize=15;" parent="1" vertex="1">
          <mxGeometry x="390" y="440" width="120" height="60" as="geometry" />
        </mxCell>
        <mxCell id="EXDuGgkbZWvS8G7htx2T-100" style="edgeStyle=orthogonalEdgeStyle;rounded=0;orthogonalLoop=1;jettySize=auto;html=1;exitX=0;exitY=0.5;exitDx=0;exitDy=0;entryX=0.5;entryY=0;entryDx=0;entryDy=0;" parent="1" source="EXDuGgkbZWvS8G7htx2T-92" target="EXDuGgkbZWvS8G7htx2T-94" edge="1">
          <mxGeometry relative="1" as="geometry" />
        </mxCell>
        <mxCell id="EXDuGgkbZWvS8G7htx2T-141" value="Sí" style="edgeLabel;html=1;align=center;verticalAlign=middle;resizable=0;points=[];fontStyle=1" parent="EXDuGgkbZWvS8G7htx2T-100" vertex="1" connectable="0">
          <mxGeometry x="-0.5543" y="-1" relative="1" as="geometry">
            <mxPoint x="17" y="-9" as="offset" />
          </mxGeometry>
        </mxCell>
        <mxCell id="EXDuGgkbZWvS8G7htx2T-104" style="edgeStyle=orthogonalEdgeStyle;rounded=0;orthogonalLoop=1;jettySize=auto;html=1;exitX=0.5;exitY=1;exitDx=0;exitDy=0;entryX=0.5;entryY=0;entryDx=0;entryDy=0;" parent="1" source="EXDuGgkbZWvS8G7htx2T-92" target="EXDuGgkbZWvS8G7htx2T-103" edge="1">
          <mxGeometry relative="1" as="geometry" />
        </mxCell>
        <mxCell id="EXDuGgkbZWvS8G7htx2T-142" value="No" style="edgeLabel;html=1;align=center;verticalAlign=middle;resizable=0;points=[];fontStyle=1" parent="EXDuGgkbZWvS8G7htx2T-104" vertex="1" connectable="0">
          <mxGeometry x="-0.3985" y="2" relative="1" as="geometry">
            <mxPoint x="13" y="-2" as="offset" />
          </mxGeometry>
        </mxCell>
        <mxCell id="EXDuGgkbZWvS8G7htx2T-92" value="El láser ya&lt;br&gt;está prendido?" style="rhombus;whiteSpace=wrap;html=1;fontStyle=1;fontSize=15;strokeWidth=2;" parent="1" vertex="1">
          <mxGeometry x="10" y="595" width="150" height="90" as="geometry" />
        </mxCell>
        <mxCell id="EXDuGgkbZWvS8G7htx2T-97" style="edgeStyle=orthogonalEdgeStyle;rounded=0;orthogonalLoop=1;jettySize=auto;html=1;exitX=0.5;exitY=1;exitDx=0;exitDy=0;entryX=0.5;entryY=0;entryDx=0;entryDy=0;" parent="1" source="EXDuGgkbZWvS8G7htx2T-94" target="EXDuGgkbZWvS8G7htx2T-96" edge="1">
          <mxGeometry relative="1" as="geometry" />
        </mxCell>
        <mxCell id="EXDuGgkbZWvS8G7htx2T-94" value="Apagar láser" style="rounded=1;whiteSpace=wrap;html=1;strokeWidth=2;fontStyle=1;fontSize=15;" parent="1" vertex="1">
          <mxGeometry x="-140" y="670" width="120" height="40" as="geometry" />
        </mxCell>
        <mxCell id="EXDuGgkbZWvS8G7htx2T-99" style="edgeStyle=orthogonalEdgeStyle;rounded=0;orthogonalLoop=1;jettySize=auto;html=1;exitX=0.5;exitY=1;exitDx=0;exitDy=0;entryX=0.5;entryY=0;entryDx=0;entryDy=0;" parent="1" source="EXDuGgkbZWvS8G7htx2T-96" target="EXDuGgkbZWvS8G7htx2T-98" edge="1">
          <mxGeometry relative="1" as="geometry" />
        </mxCell>
        <mxCell id="EXDuGgkbZWvS8G7htx2T-96" value="Poner estado de medición en modo &quot;IDLE&quot;" style="rounded=1;whiteSpace=wrap;html=1;strokeWidth=2;fontStyle=1;fontSize=15;" parent="1" vertex="1">
          <mxGeometry x="-140" y="730" width="120" height="50" as="geometry" />
        </mxCell>
        <mxCell id="EXDuGgkbZWvS8G7htx2T-112" style="edgeStyle=orthogonalEdgeStyle;rounded=0;orthogonalLoop=1;jettySize=auto;html=1;exitX=0.5;exitY=1;exitDx=0;exitDy=0;entryX=0;entryY=0.5;entryDx=0;entryDy=0;" parent="1" source="EXDuGgkbZWvS8G7htx2T-98" target="EXDuGgkbZWvS8G7htx2T-73" edge="1">
          <mxGeometry relative="1" as="geometry" />
        </mxCell>
        <mxCell id="EXDuGgkbZWvS8G7htx2T-98" value="Mandar byte de scan finalizado" style="rounded=1;whiteSpace=wrap;html=1;strokeWidth=2;fontStyle=1;fontSize=15;" parent="1" vertex="1">
          <mxGeometry x="-140" y="795" width="120" height="40" as="geometry" />
        </mxCell>
        <mxCell id="EXDuGgkbZWvS8G7htx2T-106" style="edgeStyle=orthogonalEdgeStyle;rounded=0;orthogonalLoop=1;jettySize=auto;html=1;exitX=0.5;exitY=1;exitDx=0;exitDy=0;entryX=0.5;entryY=0;entryDx=0;entryDy=0;" parent="1" source="EXDuGgkbZWvS8G7htx2T-101" target="EXDuGgkbZWvS8G7htx2T-102" edge="1">
          <mxGeometry relative="1" as="geometry" />
        </mxCell>
        <mxCell id="EXDuGgkbZWvS8G7htx2T-101" value="Configurar delay de láser" style="rounded=1;whiteSpace=wrap;html=1;strokeWidth=2;fontStyle=1;fontSize=15;" parent="1" vertex="1">
          <mxGeometry x="25" y="765" width="120" height="40" as="geometry" />
        </mxCell>
        <mxCell id="EXDuGgkbZWvS8G7htx2T-111" style="edgeStyle=orthogonalEdgeStyle;rounded=0;orthogonalLoop=1;jettySize=auto;html=1;exitX=0.5;exitY=1;exitDx=0;exitDy=0;entryX=0;entryY=0.5;entryDx=0;entryDy=0;" parent="1" source="EXDuGgkbZWvS8G7htx2T-102" target="EXDuGgkbZWvS8G7htx2T-73" edge="1">
          <mxGeometry relative="1" as="geometry" />
        </mxCell>
        <mxCell id="EXDuGgkbZWvS8G7htx2T-102" value="Prender TIMER0" style="rounded=1;whiteSpace=wrap;html=1;strokeWidth=2;fontStyle=1;fontSize=15;" parent="1" vertex="1">
          <mxGeometry x="25" y="820" width="120" height="40" as="geometry" />
        </mxCell>
        <mxCell id="EXDuGgkbZWvS8G7htx2T-105" style="edgeStyle=orthogonalEdgeStyle;rounded=0;orthogonalLoop=1;jettySize=auto;html=1;exitX=0.5;exitY=1;exitDx=0;exitDy=0;entryX=0.5;entryY=0;entryDx=0;entryDy=0;" parent="1" source="EXDuGgkbZWvS8G7htx2T-103" target="EXDuGgkbZWvS8G7htx2T-101" edge="1">
          <mxGeometry relative="1" as="geometry" />
        </mxCell>
        <mxCell id="EXDuGgkbZWvS8G7htx2T-103" value="Prender láser" style="rounded=1;whiteSpace=wrap;html=1;strokeWidth=2;fontStyle=1;fontSize=15;" parent="1" vertex="1">
          <mxGeometry x="25" y="710" width="120" height="40" as="geometry" />
        </mxCell>
        <mxCell id="EXDuGgkbZWvS8G7htx2T-109" style="edgeStyle=orthogonalEdgeStyle;rounded=0;orthogonalLoop=1;jettySize=auto;html=1;exitX=0.5;exitY=1;exitDx=0;exitDy=0;entryX=1;entryY=0.5;entryDx=0;entryDy=0;" parent="1" source="EXDuGgkbZWvS8G7htx2T-107" target="EXDuGgkbZWvS8G7htx2T-73" edge="1">
          <mxGeometry relative="1" as="geometry" />
        </mxCell>
        <mxCell id="EXDuGgkbZWvS8G7htx2T-107" value="Actualizar estado de medición a &quot;IDLE&quot;" style="rounded=1;whiteSpace=wrap;html=1;strokeWidth=2;fontStyle=1;fontSize=15;" parent="1" vertex="1">
          <mxGeometry x="350" y="730" width="120" height="80" as="geometry" />
        </mxCell>
        <mxCell id="EXDuGgkbZWvS8G7htx2T-123" style="edgeStyle=orthogonalEdgeStyle;rounded=0;orthogonalLoop=1;jettySize=auto;html=1;exitX=1;exitY=0.5;exitDx=0;exitDy=0;entryX=0;entryY=0.5;entryDx=0;entryDy=0;" parent="1" source="EXDuGgkbZWvS8G7htx2T-114" target="EXDuGgkbZWvS8G7htx2T-121" edge="1">
          <mxGeometry relative="1" as="geometry" />
        </mxCell>
        <mxCell id="EXDuGgkbZWvS8G7htx2T-144" value="Sí" style="edgeLabel;html=1;align=center;verticalAlign=middle;resizable=0;points=[];fontStyle=1" parent="EXDuGgkbZWvS8G7htx2T-123" vertex="1" connectable="0">
          <mxGeometry x="0.0382" y="-2" relative="1" as="geometry">
            <mxPoint x="-15" y="-12" as="offset" />
          </mxGeometry>
        </mxCell>
        <mxCell id="EXDuGgkbZWvS8G7htx2T-128" style="edgeStyle=orthogonalEdgeStyle;rounded=0;orthogonalLoop=1;jettySize=auto;html=1;exitX=0.5;exitY=1;exitDx=0;exitDy=0;entryX=0.5;entryY=0;entryDx=0;entryDy=0;" parent="1" source="EXDuGgkbZWvS8G7htx2T-114" target="EXDuGgkbZWvS8G7htx2T-115" edge="1">
          <mxGeometry relative="1" as="geometry" />
        </mxCell>
        <mxCell id="EXDuGgkbZWvS8G7htx2T-148" value="No" style="edgeLabel;html=1;align=center;verticalAlign=middle;resizable=0;points=[];fontStyle=1" parent="EXDuGgkbZWvS8G7htx2T-128" vertex="1" connectable="0">
          <mxGeometry x="-0.0815" y="4" relative="1" as="geometry">
            <mxPoint x="6" y="1" as="offset" />
          </mxGeometry>
        </mxCell>
        <mxCell id="EXDuGgkbZWvS8G7htx2T-114" value="Se estaba&lt;br&gt;esperando un byte adicional de otro comando?" style="rhombus;whiteSpace=wrap;html=1;fontStyle=1;fontSize=15;strokeWidth=2;" parent="1" vertex="1">
          <mxGeometry x="646.25" y="180" width="175" height="120" as="geometry" />
        </mxCell>
        <mxCell id="EXDuGgkbZWvS8G7htx2T-124" style="edgeStyle=orthogonalEdgeStyle;rounded=0;orthogonalLoop=1;jettySize=auto;html=1;exitX=1;exitY=0.5;exitDx=0;exitDy=0;entryX=0;entryY=0.5;entryDx=0;entryDy=0;" parent="1" source="EXDuGgkbZWvS8G7htx2T-115" target="EXDuGgkbZWvS8G7htx2T-122" edge="1">
          <mxGeometry relative="1" as="geometry" />
        </mxCell>
        <mxCell id="EXDuGgkbZWvS8G7htx2T-145" value="No" style="edgeLabel;html=1;align=center;verticalAlign=middle;resizable=0;points=[];fontStyle=1" parent="EXDuGgkbZWvS8G7htx2T-124" vertex="1" connectable="0">
          <mxGeometry x="-0.012" y="4" relative="1" as="geometry">
            <mxPoint x="-8" y="-11" as="offset" />
          </mxGeometry>
        </mxCell>
        <mxCell id="EXDuGgkbZWvS8G7htx2T-129" style="edgeStyle=orthogonalEdgeStyle;rounded=0;orthogonalLoop=1;jettySize=auto;html=1;exitX=0.5;exitY=1;exitDx=0;exitDy=0;entryX=0.5;entryY=0;entryDx=0;entryDy=0;" parent="1" source="EXDuGgkbZWvS8G7htx2T-115" target="EXDuGgkbZWvS8G7htx2T-118" edge="1">
          <mxGeometry relative="1" as="geometry" />
        </mxCell>
        <mxCell id="EXDuGgkbZWvS8G7htx2T-146" value="Sí" style="edgeLabel;html=1;align=center;verticalAlign=middle;resizable=0;points=[];fontStyle=1" parent="EXDuGgkbZWvS8G7htx2T-129" vertex="1" connectable="0">
          <mxGeometry x="-0.3407" y="3" relative="1" as="geometry">
            <mxPoint x="7" as="offset" />
          </mxGeometry>
        </mxCell>
        <mxCell id="EXDuGgkbZWvS8G7htx2T-115" value="Se está&lt;br&gt;procesando otro comando actualmente?" style="rhombus;whiteSpace=wrap;html=1;fontStyle=1;fontSize=15;strokeWidth=2;" parent="1" vertex="1">
          <mxGeometry x="630" y="320" width="207.5" height="110" as="geometry" />
        </mxCell>
        <mxCell id="EXDuGgkbZWvS8G7htx2T-130" style="edgeStyle=orthogonalEdgeStyle;rounded=0;orthogonalLoop=1;jettySize=auto;html=1;exitX=0.5;exitY=1;exitDx=0;exitDy=0;entryX=0.5;entryY=0;entryDx=0;entryDy=0;" parent="1" source="EXDuGgkbZWvS8G7htx2T-118" target="EXDuGgkbZWvS8G7htx2T-120" edge="1">
          <mxGeometry relative="1" as="geometry" />
        </mxCell>
        <mxCell id="EXDuGgkbZWvS8G7htx2T-118" value="Envíar byte de &quot;ocupado&quot;" style="rounded=1;whiteSpace=wrap;html=1;strokeWidth=2;fontStyle=1;fontSize=15;" parent="1" vertex="1">
          <mxGeometry x="673.75" y="450" width="120" height="60" as="geometry" />
        </mxCell>
        <mxCell id="EXDuGgkbZWvS8G7htx2T-120" value="Retornar" style="ellipse;whiteSpace=wrap;html=1;strokeWidth=2;fontSize=15;fontStyle=1" parent="1" vertex="1">
          <mxGeometry x="693.75" y="530" width="80" height="50" as="geometry" />
        </mxCell>
        <mxCell id="EXDuGgkbZWvS8G7htx2T-126" style="edgeStyle=orthogonalEdgeStyle;rounded=0;orthogonalLoop=1;jettySize=auto;html=1;exitX=1;exitY=0.5;exitDx=0;exitDy=0;entryX=1;entryY=0.5;entryDx=0;entryDy=0;" parent="1" source="EXDuGgkbZWvS8G7htx2T-121" target="EXDuGgkbZWvS8G7htx2T-120" edge="1">
          <mxGeometry relative="1" as="geometry">
            <mxPoint x="773.75" y="570" as="targetPoint" />
          </mxGeometry>
        </mxCell>
        <mxCell id="EXDuGgkbZWvS8G7htx2T-121" value="Activar procesamiento de byte pendiente" style="rounded=1;whiteSpace=wrap;html=1;strokeWidth=2;fontStyle=1;fontSize=15;" parent="1" vertex="1">
          <mxGeometry x="853.75" y="205" width="120" height="70" as="geometry" />
        </mxCell>
        <mxCell id="EXDuGgkbZWvS8G7htx2T-125" style="edgeStyle=orthogonalEdgeStyle;rounded=0;orthogonalLoop=1;jettySize=auto;html=1;exitX=1;exitY=0.5;exitDx=0;exitDy=0;entryX=1;entryY=0.5;entryDx=0;entryDy=0;" parent="1" source="EXDuGgkbZWvS8G7htx2T-122" target="EXDuGgkbZWvS8G7htx2T-120" edge="1">
          <mxGeometry relative="1" as="geometry" />
        </mxCell>
        <mxCell id="EXDuGgkbZWvS8G7htx2T-122" value="Activar procesamiento de comando pendiente" style="rounded=1;whiteSpace=wrap;html=1;strokeWidth=2;fontStyle=1;fontSize=15;" parent="1" vertex="1">
          <mxGeometry x="853.75" y="340" width="120" height="70" as="geometry" />
        </mxCell>
        <mxCell id="U3W17LR9RMBSGNJ_wiev-39" style="edgeStyle=orthogonalEdgeStyle;rounded=0;orthogonalLoop=1;jettySize=auto;html=1;exitX=0.5;exitY=1;exitDx=0;exitDy=0;entryX=0.5;entryY=0;entryDx=0;entryDy=0;" edge="1" parent="1" source="U3W17LR9RMBSGNJ_wiev-2" target="U3W17LR9RMBSGNJ_wiev-5">
          <mxGeometry relative="1" as="geometry" />
        </mxCell>
        <mxCell id="U3W17LR9RMBSGNJ_wiev-55" value="No" style="edgeLabel;html=1;align=center;verticalAlign=middle;resizable=0;points=[];fontStyle=1" vertex="1" connectable="0" parent="U3W17LR9RMBSGNJ_wiev-39">
          <mxGeometry x="-0.36" y="1" relative="1" as="geometry">
            <mxPoint x="-17" y="-5" as="offset" />
          </mxGeometry>
        </mxCell>
        <mxCell id="U3W17LR9RMBSGNJ_wiev-52" style="edgeStyle=orthogonalEdgeStyle;rounded=0;orthogonalLoop=1;jettySize=auto;html=1;exitX=1;exitY=0.5;exitDx=0;exitDy=0;entryX=0.5;entryY=0;entryDx=0;entryDy=0;" edge="1" parent="1" source="U3W17LR9RMBSGNJ_wiev-2" target="U3W17LR9RMBSGNJ_wiev-45">
          <mxGeometry relative="1" as="geometry" />
        </mxCell>
        <mxCell id="U3W17LR9RMBSGNJ_wiev-54" value="Sí" style="edgeLabel;html=1;align=center;verticalAlign=middle;resizable=0;points=[];fontStyle=1" vertex="1" connectable="0" parent="U3W17LR9RMBSGNJ_wiev-52">
          <mxGeometry x="-0.0359" y="3" relative="1" as="geometry">
            <mxPoint x="-72" y="-5" as="offset" />
          </mxGeometry>
        </mxCell>
        <mxCell id="U3W17LR9RMBSGNJ_wiev-2" value="El ECHO está&lt;br&gt;en alto?" style="rhombus;whiteSpace=wrap;html=1;fontStyle=1;fontSize=15;strokeWidth=2;" vertex="1" parent="1">
          <mxGeometry x="1496.97" y="120" width="157.5" height="85" as="geometry" />
        </mxCell>
        <mxCell id="U3W17LR9RMBSGNJ_wiev-21" style="edgeStyle=orthogonalEdgeStyle;rounded=0;orthogonalLoop=1;jettySize=auto;html=1;exitX=0.5;exitY=1;exitDx=0;exitDy=0;entryX=0.5;entryY=0;entryDx=0;entryDy=0;" edge="1" parent="1" source="U3W17LR9RMBSGNJ_wiev-5" target="U3W17LR9RMBSGNJ_wiev-6">
          <mxGeometry relative="1" as="geometry" />
        </mxCell>
        <mxCell id="U3W17LR9RMBSGNJ_wiev-5" value="Apagar TIMER2" style="rounded=1;whiteSpace=wrap;html=1;strokeWidth=2;fontStyle=1;fontSize=15;" vertex="1" parent="1">
          <mxGeometry x="1520" y="222.5" width="111.43" height="37.5" as="geometry" />
        </mxCell>
        <mxCell id="U3W17LR9RMBSGNJ_wiev-22" style="edgeStyle=orthogonalEdgeStyle;rounded=0;orthogonalLoop=1;jettySize=auto;html=1;exitX=0.5;exitY=1;exitDx=0;exitDy=0;entryX=0.5;entryY=0;entryDx=0;entryDy=0;" edge="1" parent="1" source="U3W17LR9RMBSGNJ_wiev-6" target="U3W17LR9RMBSGNJ_wiev-8">
          <mxGeometry relative="1" as="geometry" />
        </mxCell>
        <mxCell id="U3W17LR9RMBSGNJ_wiev-6" value="Leer byte bajo de lectura (TCNT2)" style="rounded=1;whiteSpace=wrap;html=1;strokeWidth=2;fontStyle=1;fontSize=15;" vertex="1" parent="1">
          <mxGeometry x="1520" y="270" width="111.43" height="60" as="geometry" />
        </mxCell>
        <mxCell id="U3W17LR9RMBSGNJ_wiev-23" style="edgeStyle=orthogonalEdgeStyle;rounded=0;orthogonalLoop=1;jettySize=auto;html=1;exitX=0;exitY=0.5;exitDx=0;exitDy=0;entryX=0.5;entryY=0;entryDx=0;entryDy=0;" edge="1" parent="1" source="U3W17LR9RMBSGNJ_wiev-8" target="U3W17LR9RMBSGNJ_wiev-9">
          <mxGeometry relative="1" as="geometry" />
        </mxCell>
        <mxCell id="U3W17LR9RMBSGNJ_wiev-56" value="Sí" style="edgeLabel;html=1;align=center;verticalAlign=middle;resizable=0;points=[];fontStyle=1" vertex="1" connectable="0" parent="U3W17LR9RMBSGNJ_wiev-23">
          <mxGeometry x="0.0118" y="1" relative="1" as="geometry">
            <mxPoint x="25" y="-11" as="offset" />
          </mxGeometry>
        </mxCell>
        <mxCell id="U3W17LR9RMBSGNJ_wiev-25" style="edgeStyle=orthogonalEdgeStyle;rounded=0;orthogonalLoop=1;jettySize=auto;html=1;exitX=0.5;exitY=1;exitDx=0;exitDy=0;entryX=0.5;entryY=0;entryDx=0;entryDy=0;" edge="1" parent="1" source="U3W17LR9RMBSGNJ_wiev-8" target="U3W17LR9RMBSGNJ_wiev-10">
          <mxGeometry relative="1" as="geometry" />
        </mxCell>
        <mxCell id="U3W17LR9RMBSGNJ_wiev-57" value="No" style="edgeLabel;html=1;align=center;verticalAlign=middle;resizable=0;points=[];fontStyle=1" vertex="1" connectable="0" parent="U3W17LR9RMBSGNJ_wiev-25">
          <mxGeometry x="-0.16" y="1" relative="1" as="geometry">
            <mxPoint x="13" y="-3" as="offset" />
          </mxGeometry>
        </mxCell>
        <mxCell id="U3W17LR9RMBSGNJ_wiev-8" value="La medición&lt;br&gt;es menor a la mínima registrada?" style="rhombus;whiteSpace=wrap;html=1;fontStyle=1;fontSize=15;strokeWidth=2;" vertex="1" parent="1">
          <mxGeometry x="1488.48" y="340" width="174.47" height="100" as="geometry" />
        </mxCell>
        <mxCell id="U3W17LR9RMBSGNJ_wiev-24" style="edgeStyle=orthogonalEdgeStyle;rounded=0;orthogonalLoop=1;jettySize=auto;html=1;exitX=0.5;exitY=1;exitDx=0;exitDy=0;entryX=0;entryY=0.5;entryDx=0;entryDy=0;" edge="1" parent="1" source="U3W17LR9RMBSGNJ_wiev-9" target="U3W17LR9RMBSGNJ_wiev-10">
          <mxGeometry relative="1" as="geometry" />
        </mxCell>
        <mxCell id="U3W17LR9RMBSGNJ_wiev-9" value="Actualizar medición mínima" style="rounded=1;whiteSpace=wrap;html=1;strokeWidth=2;fontStyle=1;fontSize=15;" vertex="1" parent="1">
          <mxGeometry x="1377.05" y="420" width="111.43" height="60" as="geometry" />
        </mxCell>
        <mxCell id="U3W17LR9RMBSGNJ_wiev-26" style="edgeStyle=orthogonalEdgeStyle;rounded=0;orthogonalLoop=1;jettySize=auto;html=1;exitX=0.5;exitY=1;exitDx=0;exitDy=0;entryX=0.5;entryY=0;entryDx=0;entryDy=0;" edge="1" parent="1" source="U3W17LR9RMBSGNJ_wiev-10" target="U3W17LR9RMBSGNJ_wiev-11">
          <mxGeometry relative="1" as="geometry" />
        </mxCell>
        <mxCell id="U3W17LR9RMBSGNJ_wiev-10" value="Convertir medición actual a cm" style="rounded=1;whiteSpace=wrap;html=1;strokeWidth=2;fontStyle=1;fontSize=15;" vertex="1" parent="1">
          <mxGeometry x="1520" y="470" width="111.43" height="60" as="geometry" />
        </mxCell>
        <mxCell id="U3W17LR9RMBSGNJ_wiev-27" style="edgeStyle=orthogonalEdgeStyle;rounded=0;orthogonalLoop=1;jettySize=auto;html=1;exitX=0.5;exitY=1;exitDx=0;exitDy=0;entryX=0.5;entryY=0;entryDx=0;entryDy=0;" edge="1" parent="1" source="U3W17LR9RMBSGNJ_wiev-11" target="U3W17LR9RMBSGNJ_wiev-12">
          <mxGeometry relative="1" as="geometry" />
        </mxCell>
        <mxCell id="U3W17LR9RMBSGNJ_wiev-11" value="Enviar medición" style="rounded=1;whiteSpace=wrap;html=1;strokeWidth=2;fontStyle=1;fontSize=15;" vertex="1" parent="1">
          <mxGeometry x="1520" y="545" width="111.43" height="35" as="geometry" />
        </mxCell>
        <mxCell id="U3W17LR9RMBSGNJ_wiev-28" style="edgeStyle=orthogonalEdgeStyle;rounded=0;orthogonalLoop=1;jettySize=auto;html=1;exitX=0;exitY=0.5;exitDx=0;exitDy=0;entryX=0.5;entryY=0;entryDx=0;entryDy=0;" edge="1" parent="1" source="U3W17LR9RMBSGNJ_wiev-12" target="U3W17LR9RMBSGNJ_wiev-17">
          <mxGeometry relative="1" as="geometry" />
        </mxCell>
        <mxCell id="U3W17LR9RMBSGNJ_wiev-59" value="Sí" style="edgeLabel;html=1;align=center;verticalAlign=middle;resizable=0;points=[];fontStyle=1" vertex="1" connectable="0" parent="U3W17LR9RMBSGNJ_wiev-28">
          <mxGeometry x="0.1312" y="-2" relative="1" as="geometry">
            <mxPoint x="35" y="-6" as="offset" />
          </mxGeometry>
        </mxCell>
        <mxCell id="U3W17LR9RMBSGNJ_wiev-29" style="edgeStyle=orthogonalEdgeStyle;rounded=0;orthogonalLoop=1;jettySize=auto;html=1;exitX=1;exitY=0.5;exitDx=0;exitDy=0;entryX=0.5;entryY=0;entryDx=0;entryDy=0;" edge="1" parent="1" source="U3W17LR9RMBSGNJ_wiev-12" target="U3W17LR9RMBSGNJ_wiev-13">
          <mxGeometry relative="1" as="geometry" />
        </mxCell>
        <mxCell id="U3W17LR9RMBSGNJ_wiev-58" value="&lt;b&gt;No&lt;/b&gt;" style="edgeLabel;html=1;align=center;verticalAlign=middle;resizable=0;points=[];" vertex="1" connectable="0" parent="U3W17LR9RMBSGNJ_wiev-29">
          <mxGeometry x="-0.3181" relative="1" as="geometry">
            <mxPoint x="-22" y="-8" as="offset" />
          </mxGeometry>
        </mxCell>
        <mxCell id="U3W17LR9RMBSGNJ_wiev-12" value="Se llegó al&lt;br&gt;ángulo máximo de yaw?" style="rhombus;whiteSpace=wrap;html=1;fontStyle=1;fontSize=15;strokeWidth=2;" vertex="1" parent="1">
          <mxGeometry x="1496.96" y="595" width="157.5" height="85" as="geometry" />
        </mxCell>
        <mxCell id="U3W17LR9RMBSGNJ_wiev-32" style="edgeStyle=orthogonalEdgeStyle;rounded=0;orthogonalLoop=1;jettySize=auto;html=1;exitX=0.5;exitY=1;exitDx=0;exitDy=0;entryX=0.5;entryY=0;entryDx=0;entryDy=0;" edge="1" parent="1" source="U3W17LR9RMBSGNJ_wiev-13" target="U3W17LR9RMBSGNJ_wiev-14">
          <mxGeometry relative="1" as="geometry" />
        </mxCell>
        <mxCell id="U3W17LR9RMBSGNJ_wiev-13" value="Actualizar ángulo yaw" style="rounded=1;whiteSpace=wrap;html=1;strokeWidth=2;fontStyle=1;fontSize=15;" vertex="1" parent="1">
          <mxGeometry x="1644.28" y="680" width="111.43" height="35" as="geometry" />
        </mxCell>
        <mxCell id="U3W17LR9RMBSGNJ_wiev-50" style="edgeStyle=orthogonalEdgeStyle;rounded=0;orthogonalLoop=1;jettySize=auto;html=1;exitX=0.5;exitY=1;exitDx=0;exitDy=0;" edge="1" parent="1" source="U3W17LR9RMBSGNJ_wiev-14">
          <mxGeometry relative="1" as="geometry">
            <mxPoint x="1699.666666666667" y="1100" as="targetPoint" />
          </mxGeometry>
        </mxCell>
        <mxCell id="U3W17LR9RMBSGNJ_wiev-14" value="Mandar posición actualizada" style="rounded=1;whiteSpace=wrap;html=1;strokeWidth=2;fontStyle=1;fontSize=15;" vertex="1" parent="1">
          <mxGeometry x="1644.28" y="727.5" width="111.43" height="52.5" as="geometry" />
        </mxCell>
        <mxCell id="U3W17LR9RMBSGNJ_wiev-30" style="edgeStyle=orthogonalEdgeStyle;rounded=0;orthogonalLoop=1;jettySize=auto;html=1;exitX=1;exitY=0.5;exitDx=0;exitDy=0;entryX=0.5;entryY=0;entryDx=0;entryDy=0;" edge="1" parent="1" source="U3W17LR9RMBSGNJ_wiev-17" target="U3W17LR9RMBSGNJ_wiev-18">
          <mxGeometry relative="1" as="geometry" />
        </mxCell>
        <mxCell id="U3W17LR9RMBSGNJ_wiev-60" value="No" style="edgeLabel;html=1;align=center;verticalAlign=middle;resizable=0;points=[];fontStyle=1" vertex="1" connectable="0" parent="U3W17LR9RMBSGNJ_wiev-30">
          <mxGeometry x="-0.4777" y="3" relative="1" as="geometry">
            <mxPoint x="-14" y="-7" as="offset" />
          </mxGeometry>
        </mxCell>
        <mxCell id="U3W17LR9RMBSGNJ_wiev-38" style="edgeStyle=orthogonalEdgeStyle;rounded=0;orthogonalLoop=1;jettySize=auto;html=1;exitX=0.5;exitY=1;exitDx=0;exitDy=0;entryX=0.5;entryY=0;entryDx=0;entryDy=0;" edge="1" parent="1" source="U3W17LR9RMBSGNJ_wiev-17" target="U3W17LR9RMBSGNJ_wiev-34">
          <mxGeometry relative="1" as="geometry" />
        </mxCell>
        <mxCell id="U3W17LR9RMBSGNJ_wiev-61" value="Sí" style="edgeLabel;html=1;align=center;verticalAlign=middle;resizable=0;points=[];fontStyle=1" vertex="1" connectable="0" parent="U3W17LR9RMBSGNJ_wiev-38">
          <mxGeometry x="-0.0158" y="1" relative="1" as="geometry">
            <mxPoint x="6" y="-31" as="offset" />
          </mxGeometry>
        </mxCell>
        <mxCell id="U3W17LR9RMBSGNJ_wiev-17" value="Se llegó al&lt;br&gt;ángulo máximo de pitch?" style="rhombus;whiteSpace=wrap;html=1;fontStyle=1;fontSize=15;strokeWidth=2;" vertex="1" parent="1">
          <mxGeometry x="1354.02" y="665" width="157.5" height="85" as="geometry" />
        </mxCell>
        <mxCell id="U3W17LR9RMBSGNJ_wiev-31" style="edgeStyle=orthogonalEdgeStyle;rounded=0;orthogonalLoop=1;jettySize=auto;html=1;exitX=0.5;exitY=1;exitDx=0;exitDy=0;entryX=0.5;entryY=0;entryDx=0;entryDy=0;" edge="1" parent="1" source="U3W17LR9RMBSGNJ_wiev-18" target="U3W17LR9RMBSGNJ_wiev-19">
          <mxGeometry relative="1" as="geometry" />
        </mxCell>
        <mxCell id="U3W17LR9RMBSGNJ_wiev-18" value="Actualizar ángulo pitch" style="rounded=1;whiteSpace=wrap;html=1;strokeWidth=2;fontStyle=1;fontSize=15;" vertex="1" parent="1">
          <mxGeometry x="1520" y="731.25" width="111.43" height="35" as="geometry" />
        </mxCell>
        <mxCell id="U3W17LR9RMBSGNJ_wiev-49" style="edgeStyle=orthogonalEdgeStyle;rounded=0;orthogonalLoop=1;jettySize=auto;html=1;exitX=0.5;exitY=1;exitDx=0;exitDy=0;entryX=0.5;entryY=0;entryDx=0;entryDy=0;" edge="1" parent="1">
          <mxGeometry relative="1" as="geometry">
            <mxPoint x="1575.7150000000001" y="830" as="sourcePoint" />
            <mxPoint x="1699.9899999999993" y="1096.25" as="targetPoint" />
            <Array as="points">
              <mxPoint x="1576" y="886.25" />
              <mxPoint x="1700" y="886.25" />
            </Array>
          </mxGeometry>
        </mxCell>
        <mxCell id="U3W17LR9RMBSGNJ_wiev-19" value="Mandar posición actualizada" style="rounded=1;whiteSpace=wrap;html=1;strokeWidth=2;fontStyle=1;fontSize=15;" vertex="1" parent="1">
          <mxGeometry x="1520" y="781.25" width="111.43" height="52.5" as="geometry" />
        </mxCell>
        <mxCell id="U3W17LR9RMBSGNJ_wiev-42" style="edgeStyle=orthogonalEdgeStyle;rounded=0;orthogonalLoop=1;jettySize=auto;html=1;exitX=0.5;exitY=1;exitDx=0;exitDy=0;" edge="1" parent="1" source="U3W17LR9RMBSGNJ_wiev-34" target="U3W17LR9RMBSGNJ_wiev-41">
          <mxGeometry relative="1" as="geometry" />
        </mxCell>
        <mxCell id="U3W17LR9RMBSGNJ_wiev-67" value="Sí" style="edgeLabel;html=1;align=center;verticalAlign=middle;resizable=0;points=[];fontStyle=1" vertex="1" connectable="0" parent="U3W17LR9RMBSGNJ_wiev-42">
          <mxGeometry x="-0.2995" y="2" relative="1" as="geometry">
            <mxPoint x="5" as="offset" />
          </mxGeometry>
        </mxCell>
        <mxCell id="U3W17LR9RMBSGNJ_wiev-64" style="edgeStyle=orthogonalEdgeStyle;rounded=0;orthogonalLoop=1;jettySize=auto;html=1;exitX=1;exitY=0.5;exitDx=0;exitDy=0;entryX=0.5;entryY=0;entryDx=0;entryDy=0;" edge="1" parent="1" source="U3W17LR9RMBSGNJ_wiev-34" target="U3W17LR9RMBSGNJ_wiev-47">
          <mxGeometry relative="1" as="geometry" />
        </mxCell>
        <mxCell id="U3W17LR9RMBSGNJ_wiev-66" value="No" style="edgeLabel;html=1;align=center;verticalAlign=middle;resizable=0;points=[];fontStyle=1" vertex="1" connectable="0" parent="U3W17LR9RMBSGNJ_wiev-64">
          <mxGeometry x="-0.9354" y="-1" relative="1" as="geometry">
            <mxPoint x="-5" y="-7" as="offset" />
          </mxGeometry>
        </mxCell>
        <mxCell id="U3W17LR9RMBSGNJ_wiev-34" value="La medición&lt;br&gt;era parte de un escaneo?" style="rhombus;whiteSpace=wrap;html=1;fontStyle=1;fontSize=15;strokeWidth=2;" vertex="1" parent="1">
          <mxGeometry x="1354.02" y="832.5" width="157.5" height="107.5" as="geometry" />
        </mxCell>
        <mxCell id="U3W17LR9RMBSGNJ_wiev-44" style="edgeStyle=orthogonalEdgeStyle;rounded=0;orthogonalLoop=1;jettySize=auto;html=1;exitX=0.5;exitY=1;exitDx=0;exitDy=0;entryX=0.5;entryY=0;entryDx=0;entryDy=0;" edge="1" parent="1" source="U3W17LR9RMBSGNJ_wiev-41" target="U3W17LR9RMBSGNJ_wiev-43">
          <mxGeometry relative="1" as="geometry" />
        </mxCell>
        <mxCell id="U3W17LR9RMBSGNJ_wiev-41" value="Iniciar delay de movimiento, iniciar TIMER0" style="rounded=1;whiteSpace=wrap;html=1;strokeWidth=2;fontStyle=1;fontSize=15;" vertex="1" parent="1">
          <mxGeometry x="1377.05" y="960" width="111.43" height="60" as="geometry" />
        </mxCell>
        <mxCell id="U3W17LR9RMBSGNJ_wiev-48" style="edgeStyle=orthogonalEdgeStyle;rounded=0;orthogonalLoop=1;jettySize=auto;html=1;exitX=0.5;exitY=1;exitDx=0;exitDy=0;entryX=0;entryY=0.5;entryDx=0;entryDy=0;" edge="1" parent="1" source="U3W17LR9RMBSGNJ_wiev-43" target="U3W17LR9RMBSGNJ_wiev-47">
          <mxGeometry relative="1" as="geometry" />
        </mxCell>
        <mxCell id="U3W17LR9RMBSGNJ_wiev-43" value="Poner estado de siguiente delay en DELAY_LASER" style="rounded=1;whiteSpace=wrap;html=1;strokeWidth=2;fontStyle=1;fontSize=15;" vertex="1" parent="1">
          <mxGeometry x="1377.05" y="1030" width="111.43" height="70" as="geometry" />
        </mxCell>
        <mxCell id="U3W17LR9RMBSGNJ_wiev-53" style="edgeStyle=orthogonalEdgeStyle;rounded=0;orthogonalLoop=1;jettySize=auto;html=1;exitX=0.5;exitY=1;exitDx=0;exitDy=0;entryX=0.5;entryY=0;entryDx=0;entryDy=0;" edge="1" parent="1" source="U3W17LR9RMBSGNJ_wiev-45" target="U3W17LR9RMBSGNJ_wiev-46">
          <mxGeometry relative="1" as="geometry" />
        </mxCell>
        <mxCell id="U3W17LR9RMBSGNJ_wiev-45" value="Clear bytes de medición" style="rounded=1;whiteSpace=wrap;html=1;strokeWidth=2;fontStyle=1;fontSize=15;" vertex="1" parent="1">
          <mxGeometry x="1720" y="222.5" width="111.43" height="37.5" as="geometry" />
        </mxCell>
        <mxCell id="U3W17LR9RMBSGNJ_wiev-51" style="edgeStyle=orthogonalEdgeStyle;rounded=0;orthogonalLoop=1;jettySize=auto;html=1;exitX=0.5;exitY=1;exitDx=0;exitDy=0;entryX=1;entryY=0.5;entryDx=0;entryDy=0;" edge="1" parent="1" source="U3W17LR9RMBSGNJ_wiev-46" target="U3W17LR9RMBSGNJ_wiev-47">
          <mxGeometry relative="1" as="geometry" />
        </mxCell>
        <mxCell id="U3W17LR9RMBSGNJ_wiev-46" value="Iniciar TIMER2" style="rounded=1;whiteSpace=wrap;html=1;strokeWidth=2;fontStyle=1;fontSize=15;" vertex="1" parent="1">
          <mxGeometry x="1720" y="276.25" width="111.43" height="37.5" as="geometry" />
        </mxCell>
        <mxCell id="U3W17LR9RMBSGNJ_wiev-47" value="Retornar" style="ellipse;whiteSpace=wrap;html=1;strokeWidth=2;fontSize=15;fontStyle=1" vertex="1" parent="1">
          <mxGeometry x="1659.99" y="1100" width="80" height="50" as="geometry" />
        </mxCell>
      </root>
    </mxGraphModel>
  </diagram>
</mxfile>
